<?xml version="1.0" standalone="no"?>
<!DOCTYPE svg PUBLIC "-//W3C//DTD SVG 20010904//EN"
 "http://www.w3.org/TR/2001/REC-SVG-20010904/DTD/svg10.dtd">
<svg version="1.0" xmlns="http://www.w3.org/2000/svg"
 width="500.000000pt" height="500.000000pt" viewBox="0 0 500.000000 500.000000"
 preserveAspectRatio="xMidYMid meet">
<metadata>
Created by potrace 1.14, written by Peter Selinger 2001-2017
</metadata>
<g transform="translate(0.000000,500.000000) scale(0.100000,-0.100000)"
fill="#000000" stroke="none">
<path d="M2490 3870 c0 -12 -11 -44 -25 -72 -55 -110 -176 -238 -350 -372 -55
-42 -104 -80 -110 -84 -94 -74 -470 -301 -650 -392 -21 -11 -32 -25 -37 -50
-12 -59 -2 -348 16 -425 58 -255 188 -493 356 -651 46 -44 32 -15 -32 63 -73
91 -87 112 -134 211 -52 108 -78 262 -60 347 14 64 22 86 51 140 39 70 68 99
150 147 56 33 508 300 585 347 19 11 52 31 74 43 21 13 46 28 55 33 71 43 111
65 121 65 7 0 51 -24 98 -52 48 -29 93 -56 102 -60 8 -4 173 -101 365 -216
383 -228 399 -242 447 -362 27 -68 34 -219 13 -295 -34 -129 -101 -252 -203
-373 -47 -56 -53 -76 -11 -39 58 51 239 297 239 324 0 5 11 30 25 58 30 58 80
211 90 275 4 25 10 54 13 65 8 33 11 317 4 354 -7 30 -18 39 -117 93 -453 246
-820 513 -964 702 -49 65 -91 141 -91 166 0 10 -4 22 -10 25 -5 3 -10 -4 -10
-15z"/>
<path d="M2476 2978 c-34 -71 -101 -143 -246 -262 -49 -39 -280 -187 -380
-241 -58 -32 -111 -65 -117 -73 -18 -22 -16 -199 2 -286 32 -152 97 -280 201
-397 51 -58 60 -52 11 7 -117 138 -160 319 -104 436 35 73 80 116 140 135 9 3
17 9 17 14 0 5 4 9 9 9 8 0 91 48 343 199 91 55 139 81 147 81 6 0 90 -47 187
-105 97 -58 180 -105 185 -105 5 0 9 -4 9 -10 0 -5 4 -10 10 -10 14 0 204
-117 222 -137 44 -49 61 -98 64 -178 4 -112 -34 -217 -115 -315 -53 -64 -60
-81 -17 -40 50 47 138 180 171 260 41 98 65 228 62 342 -2 53 -5 99 -7 101 -5
4 -106 62 -200 115 -74 41 -240 151 -310 205 -132 102 -249 235 -253 287 -1
11 -2 20 -4 20 -1 0 -14 -24 -27 -52z"/>
<path d="M990 2542 c-200 -100 -308 -131 -443 -129 -63 2 -84 -1 -72 -8 18
-11 100 -90 125 -121 36 -44 83 -128 133 -234 88 -186 135 -287 194 -415 63
-136 64 -138 95 -142 13 -2 52 -10 88 -18 36 -7 81 -17 100 -20 19 -3 44 -8
55 -11 11 -3 4 5 -15 18 -92 60 -151 137 -234 308 -48 97 -134 313 -159 397
l-16 52 37 22 c125 75 205 119 217 119 7 0 15 3 17 8 2 4 24 17 49 29 l47 22
-24 92 c-13 51 -24 97 -26 103 -2 6 -77 -26 -168 -72z"/>
<path d="M3846 2618 c-13 -41 -48 -199 -45 -201 2 -2 36 -18 74 -37 71 -34
234 -127 269 -153 18 -13 18 -17 -14 -113 -18 -54 -36 -103 -40 -109 -4 -5
-17 -39 -30 -75 -30 -80 -89 -204 -142 -292 -45 -76 -92 -128 -149 -164 -43
-27 -48 -34 -21 -28 43 10 169 35 187 38 65 10 81 18 94 49 8 18 38 82 67 142
28 61 61 130 72 155 70 155 175 366 203 407 43 63 95 119 140 152 l37 27 -82
-2 c-90 -3 -150 6 -246 37 -73 23 -265 113 -329 153 -29 19 -43 23 -45 14z"/>
<path d="M2480 2406 c-13 -31 -44 -69 -89 -109 -14 -12 -33 -30 -43 -39 -18
-18 -196 -142 -214 -149 -5 -2 -39 -21 -76 -42 -77 -44 -83 -56 -72 -163 8
-88 8 -88 34 -156 20 -55 73 -141 112 -182 27 -30 22 -8 -7 26 -45 53 -68 110
-73 179 -8 113 4 127 245 269 l203 120 38 -22 c21 -13 47 -28 57 -35 11 -6 83
-49 160 -94 77 -46 148 -93 157 -104 25 -31 41 -100 35 -150 -7 -48 -47 -135
-78 -168 -10 -12 -19 -25 -19 -29 0 -13 53 50 84 100 49 78 84 204 81 287 -5
87 -1 81 -79 124 -107 58 -273 172 -332 228 -29 26 -65 69 -81 94 l-29 47 -14
-32z"/>
<path d="M1260 2209 c-14 -9 -103 -37 -139 -44 -9 -2 -38 -4 -66 -4 l-50 -1
26 -23 c52 -44 114 -154 233 -411 33 -71 35 -73 82 -85 55 -14 65 -17 111 -26
l32 -7 -43 44 c-23 24 -63 80 -88 124 -51 89 -128 250 -128 268 0 7 12 19 28
27 15 8 42 22 59 32 l33 19 -32 45 c-39 53 -40 54 -58 42z"/>
<path d="M3691 2174 c-17 -25 -31 -48 -31 -52 0 -6 29 -23 97 -56 27 -13 26
-18 -35 -146 -62 -129 -116 -217 -165 -267 -23 -24 -38 -43 -35 -43 13 0 138
31 161 39 17 7 38 39 72 108 147 301 152 310 209 371 l30 32 -45 1 c-64 1 -93
7 -164 34 l-62 23 -32 -44z"/>
</g>
</svg>
